
<svg xmlns="http://www.w3.org/2000/svg" xmlns:xlink="http://www.w3.org/1999/xlink" version="1.1" width="25" height="25" viewBox="0 0 256 256" xml:space="preserve">

<defs>
</defs>
<g style="stroke: none; stroke-width: 0; stroke-dasharray: none; stroke-linecap: butt; stroke-linejoin: miter; stroke-miterlimit: 10; fill: none; fill-rule: nonzero; opacity: 1;" transform="translate(1.4065934065934016 1.4065934065934016) scale(2.81 2.81)" >
	<path d="M 87.063 27.385 c -1.839 -1.299 -4.205 -1.625 -6.325 -0.871 l -13.195 4.687 v -3.483 c 0 -5.029 -4.092 -9.121 -9.121 -9.121 H 9.121 C 4.092 18.597 0 22.689 0 27.718 v 34.563 c 0 5.029 4.092 9.121 9.121 9.121 h 49.301 c 5.029 0 9.121 -4.092 9.121 -9.121 v -3.482 l 13.195 4.687 c 0 0 0 0 0.001 0 c 0.753 0.268 1.537 0.398 2.317 0.398 c 1.417 0 2.821 -0.433 4.007 -1.27 C 88.902 61.316 90 59.198 90 56.947 V 33.053 C 90 30.802 88.902 28.683 87.063 27.385 z M 61.543 62.281 c 0 1.721 -1.4 3.121 -3.121 3.121 H 9.121 C 7.4 65.402 6 64.002 6 62.281 V 27.718 c 0 -1.721 1.4 -3.121 3.121 -3.121 h 49.301 c 1.721 0 3.121 1.4 3.121 3.121 v 7.732 v 19.1 V 62.281 z M 84 56.947 c 0 0.423 -0.249 0.662 -0.397 0.767 c -0.147 0.105 -0.454 0.261 -0.857 0.118 l -15.202 -5.4 V 37.568 l 15.203 -5.4 c 0.396 -0.142 0.708 0.013 0.856 0.118 S 84 32.63 84 33.053 V 56.947 z" style="stroke: none; stroke-width: 1; stroke-dasharray: none; stroke-linecap: butt; stroke-linejoin: miter; stroke-miterlimit: 10; fill: rgb(0,0,0); fill-rule: nonzero; opacity: 1;" transform=" matrix(1 0 0 1 0 0) " stroke-linecap="round" />
</g>
</svg>